<svg width="32" height="32" viewBox="0 0 32 32" fill="none" xmlns="http://www.w3.org/2000/svg">
<path d="M26.8297 8.80678C22.8641 2.83346 14.7791 1.2004 8.80566 5.16677C2.83349 9.13314 1.20074 17.2197 5.16635 23.193C7.66673 26.9593 11.8049 29 16.018 29C18.4871 29 20.9825 28.2985 23.1904 26.833C23.6504 26.5279 23.7755 25.9064 23.4704 25.4463C23.1654 24.9861 22.544 24.8611 22.0839 25.1662C17.0307 28.5223 10.1884 27.1406 6.83286 22.0851C3.47734 17.0321 4.8588 10.1898 9.91208 6.83359C14.9666 3.47743 21.8076 4.85916 25.1632 9.91466C26.3633 11.724 26.9984 13.8273 26.9997 15.998C26.9997 19.3054 25.6395 19.9994 24.4993 19.9994C23.3591 19.9994 21.9989 19.3054 21.9989 15.998V10.9963C21.9989 10.4436 21.5514 9.99594 20.9988 9.99594C20.4462 9.99594 19.9986 10.4436 19.9986 10.9963V11.529C18.936 10.5761 17.5332 9.99594 15.998 9.99594C12.6888 9.99594 9.99709 12.6881 9.99709 15.998C9.99709 19.3079 12.6888 22.0001 15.998 22.0001C17.9246 22.0001 19.6411 21.086 20.74 19.6693C21.4901 21.1673 22.784 22.0001 24.4993 22.0001C27.3172 22.0001 29 19.7568 29 15.998C29 13.4321 28.2486 10.9463 26.8297 8.80803V8.80678ZM15.998 19.9981C13.7914 19.9981 11.9974 18.2025 11.9974 15.9968C11.9974 13.791 13.7914 11.9954 15.998 11.9954C18.2046 11.9954 19.9986 13.7897 19.9986 15.9968C19.9986 18.2038 18.2033 19.9981 15.998 19.9981Z" fill="black"/>
</svg>
