<svg width="534" height="534" viewBox="0 0 534 534" fill="none" xmlns="http://www.w3.org/2000/svg">
<rect width="534" height="534" fill="#7A53D9"/>
<path d="M392.214 245.331L374.082 262.691L404.96 292.267L277.474 414.328L97.2082 241.721V119.672H224.694L281.192 173.778L299.337 156.406L242.826 102.312C240.442 100.029 237.611 98.2182 234.496 96.9837C231.38 95.7492 228.041 95.115 224.669 95.1176H97.2082C90.4065 95.1176 83.8833 97.7046 79.0738 102.309C74.2642 106.914 71.5623 113.16 71.5623 119.672V241.721C71.5637 248.233 74.2666 254.477 79.0765 259.081L259.342 431.7C264.153 436.301 270.674 438.884 277.474 438.884C284.273 438.884 290.794 436.301 295.605 431.7L423.104 309.627C427.909 305.021 430.608 298.777 430.608 292.267C430.608 285.757 427.909 279.513 423.104 274.907L392.214 245.331Z" fill="white"/>
<g clip-path="url(#clip0_153_2)">
<path d="M274.084 123.5C274.084 115.941 276.902 108.692 281.919 103.347C286.935 98.0027 293.739 95 300.834 95H461.334C468.428 95 475.232 98.0027 480.249 103.347C485.265 108.692 488.084 115.941 488.084 123.5V237.5C488.084 245.059 485.265 252.308 480.249 257.653C475.232 262.997 468.428 266 461.334 266H333.121C329.574 266.001 326.173 267.503 323.665 270.175L285.506 310.831C284.571 311.829 283.38 312.509 282.082 312.785C280.785 313.062 279.44 312.922 278.217 312.383C276.994 311.845 275.948 310.932 275.213 309.76C274.477 308.588 274.084 307.21 274.084 305.8V123.5ZM320.896 137.75C319.123 137.75 317.422 138.501 316.167 139.837C314.913 141.173 314.209 142.985 314.209 144.875C314.209 146.765 314.913 148.577 316.167 149.913C317.422 151.249 319.123 152 320.896 152H441.271C443.045 152 444.746 151.249 446 149.913C447.254 148.577 447.959 146.765 447.959 144.875C447.959 142.985 447.254 141.173 446 139.837C444.746 138.501 443.045 137.75 441.271 137.75H320.896ZM320.896 173.375C319.123 173.375 317.422 174.126 316.167 175.462C314.913 176.798 314.209 178.61 314.209 180.5C314.209 182.39 314.913 184.202 316.167 185.538C317.422 186.874 319.123 187.625 320.896 187.625H441.271C443.045 187.625 444.746 186.874 446 185.538C447.254 184.202 447.959 182.39 447.959 180.5C447.959 178.61 447.254 176.798 446 175.462C444.746 174.126 443.045 173.375 441.271 173.375H320.896ZM320.896 209C319.123 209 317.422 209.751 316.167 211.087C314.913 212.423 314.209 214.235 314.209 216.125C314.209 218.015 314.913 219.827 316.167 221.163C317.422 222.499 319.123 223.25 320.896 223.25H387.771C389.545 223.25 391.246 222.499 392.5 221.163C393.754 219.827 394.459 218.015 394.459 216.125C394.459 214.235 393.754 212.423 392.5 211.087C391.246 209.751 389.545 209 387.771 209H320.896Z" fill="white"/>
</g>
<defs>
<clipPath id="clip0_153_2">
<rect width="214" height="228" fill="white" transform="translate(274.084 95)"/>
</clipPath>
</defs>
</svg>
